<svg viewBox="0 0 330 200" xmlns="http://www.w3.org/2000/svg"><g><g><g><g><g><line x1="50" y1="177" x2="45" y2="177" style="visibility: inherit;" fill="rgb(0, 0, 0)" stroke="rgb(204, 204, 204)" stroke-width="1px"></line><line x1="50" y1="162.25" x2="45" y2="162.25" style="visibility: inherit;" fill="rgb(0, 0, 0)" stroke="rgb(204, 204, 204)" stroke-width="1px"></line><line x1="50" y1="147.5" x2="45" y2="147.5" style="visibility: inherit;" fill="rgb(0, 0, 0)" stroke="rgb(204, 204, 204)" stroke-width="1px"></line><line x1="50" y1="132.75000000000003" x2="45" y2="132.75000000000003" style="visibility: inherit;" fill="rgb(0, 0, 0)" stroke="rgb(204, 204, 204)" stroke-width="1px"></line><line x1="50" y1="118.00000000000001" x2="45" y2="118.00000000000001" style="visibility: inherit;" fill="rgb(0, 0, 0)" stroke="rgb(204, 204, 204)" stroke-width="1px"></line><line x1="50" y1="103.25000000000003" x2="45" y2="103.25000000000003" style="visibility: inherit;" fill="rgb(0, 0, 0)" stroke="rgb(204, 204, 204)" stroke-width="1px"></line><line x1="50" y1="88.50000000000001" x2="45" y2="88.50000000000001" style="visibility: inherit;" fill="rgb(0, 0, 0)" stroke="rgb(204, 204, 204)" stroke-width="1px"></line><line x1="50" y1="73.75000000000001" x2="45" y2="73.75000000000001" style="visibility: inherit;" fill="rgb(0, 0, 0)" stroke="rgb(204, 204, 204)" stroke-width="1px"></line><line x1="50" y1="59.00000000000003" x2="45" y2="59.00000000000003" style="visibility: inherit;" fill="rgb(0, 0, 0)" stroke="rgb(204, 204, 204)" stroke-width="1px"></line><line x1="50" y1="44.25000000000002" x2="45" y2="44.25000000000002" style="visibility: inherit;" fill="rgb(0, 0, 0)" stroke="rgb(204, 204, 204)" stroke-width="1px"></line><line x1="50" y1="29.500000000000032" x2="45" y2="29.500000000000032" style="visibility: inherit;" fill="rgb(0, 0, 0)" stroke="rgb(204, 204, 204)" stroke-width="1px"></line><line x1="50" y1="14.750000000000007" x2="45" y2="14.750000000000007" style="visibility: inherit;" fill="rgb(0, 0, 0)" stroke="rgb(204, 204, 204)" stroke-width="1px"></line><line x1="50" y1="0" x2="45" y2="0" style="visibility: inherit;" fill="rgb(0, 0, 0)" stroke="rgb(204, 204, 204)" stroke-width="1px"></line></g><g transform="translate(40, 0)"><text x="0" y="177" dx="0em" dy="0.3em" style="text-anchor: end; visibility: hidden; font-family: Roboto, sans-serif; font-size: 12px; font-weight: 200;" fill="rgb(255, 255, 255)" stroke="none" stroke-width="1px">0.45</text><text x="0" y="162.25" dx="0em" dy="0.3em" style="text-anchor: end; visibility: inherit; font-family: Roboto, sans-serif; font-size: 12px; font-weight: 200;" fill="rgb(255, 255, 255)" stroke="none" stroke-width="1px">0.5</text><text x="0" y="147.5" dx="0em" dy="0.3em" style="text-anchor: end; visibility: hidden; font-family: Roboto, sans-serif; font-size: 12px; font-weight: 200;" fill="rgb(255, 255, 255)" stroke="none" stroke-width="1px">0.55</text><text x="0" y="132.75000000000003" dx="0em" dy="0.3em" style="text-anchor: end; visibility: inherit; font-family: Roboto, sans-serif; font-size: 12px; font-weight: 200;" fill="rgb(255, 255, 255)" stroke="none" stroke-width="1px">0.6</text><text x="0" y="118.00000000000001" dx="0em" dy="0.3em" style="text-anchor: end; visibility: hidden; font-family: Roboto, sans-serif; font-size: 12px; font-weight: 200;" fill="rgb(255, 255, 255)" stroke="none" stroke-width="1px">0.65</text><text x="0" y="103.25000000000003" dx="0em" dy="0.3em" style="text-anchor: end; visibility: inherit; font-family: Roboto, sans-serif; font-size: 12px; font-weight: 200;" fill="rgb(255, 255, 255)" stroke="none" stroke-width="1px">0.7</text><text x="0" y="88.50000000000001" dx="0em" dy="0.3em" style="text-anchor: end; visibility: hidden; font-family: Roboto, sans-serif; font-size: 12px; font-weight: 200;" fill="rgb(255, 255, 255)" stroke="none" stroke-width="1px">0.75</text><text x="0" y="73.75000000000001" dx="0em" dy="0.3em" style="text-anchor: end; visibility: inherit; font-family: Roboto, sans-serif; font-size: 12px; font-weight: 200;" fill="rgb(255, 255, 255)" stroke="none" stroke-width="1px">0.8</text><text x="0" y="59.00000000000003" dx="0em" dy="0.3em" style="text-anchor: end; visibility: hidden; font-family: Roboto, sans-serif; font-size: 12px; font-weight: 200;" fill="rgb(255, 255, 255)" stroke="none" stroke-width="1px">0.85</text><text x="0" y="44.25000000000002" dx="0em" dy="0.3em" style="text-anchor: end; visibility: inherit; font-family: Roboto, sans-serif; font-size: 12px; font-weight: 200;" fill="rgb(255, 255, 255)" stroke="none" stroke-width="1px">0.9</text><text x="0" y="29.500000000000032" dx="0em" dy="0.3em" style="text-anchor: end; visibility: hidden; font-family: Roboto, sans-serif; font-size: 12px; font-weight: 200;" fill="rgb(255, 255, 255)" stroke="none" stroke-width="1px">0.95</text><text x="0" y="14.750000000000007" dx="0em" dy="0.3em" style="text-anchor: end; visibility: inherit; font-family: Roboto, sans-serif; font-size: 12px; font-weight: 200;" fill="rgb(255, 255, 255)" stroke="none" stroke-width="1px">1</text><text x="0" y="0" dx="0em" dy="0.3em" style="text-anchor: end; visibility: hidden; font-family: Roboto, sans-serif; font-size: 12px; font-weight: 200;" fill="rgb(255, 255, 255)" stroke="none" stroke-width="1px">1.05</text></g><line x1="50" y1="0" x2="50" y2="177" fill="rgb(0, 0, 0)" stroke="rgb(204, 204, 204)" stroke-width="1px"></line></g></g><g transform="translate(50, 0)" clip-path="url(#clip_0)"><clipPath id="clip_0"><rect width="178" height="177"></rect></clipPath><g><g><g><line x1="0" y1="0" x2="0" y2="177" fill="rgb(0, 0, 0)" stroke="rgb(189, 189, 189)" stroke-width="1px" opacity="0.25"></line><line x1="14.833333333333332" y1="0" x2="14.833333333333332" y2="177" fill="rgb(0, 0, 0)" stroke="rgb(189, 189, 189)" stroke-width="1px" opacity="0.25"></line><line x1="29.666666666666664" y1="0" x2="29.666666666666664" y2="177" fill="rgb(0, 0, 0)" stroke="rgb(189, 189, 189)" stroke-width="1px" opacity="0.25"></line><line x1="44.5" y1="0" x2="44.5" y2="177" fill="rgb(0, 0, 0)" stroke="rgb(189, 189, 189)" stroke-width="1px" opacity="0.25"></line><line x1="59.33333333333333" y1="0" x2="59.33333333333333" y2="177" fill="rgb(0, 0, 0)" stroke="rgb(189, 189, 189)" stroke-width="1px" opacity="0.25"></line><line x1="74.16666666666667" y1="0" x2="74.16666666666667" y2="177" fill="rgb(0, 0, 0)" stroke="rgb(189, 189, 189)" stroke-width="1px" opacity="0.25"></line><line x1="89" y1="0" x2="89" y2="177" fill="rgb(0, 0, 0)" stroke="rgb(189, 189, 189)" stroke-width="1px" opacity="0.25"></line><line x1="103.83333333333334" y1="0" x2="103.83333333333334" y2="177" fill="rgb(0, 0, 0)" stroke="rgb(189, 189, 189)" stroke-width="1px" opacity="0.25"></line><line x1="118.66666666666666" y1="0" x2="118.66666666666666" y2="177" fill="rgb(0, 0, 0)" stroke="rgb(189, 189, 189)" stroke-width="1px" opacity="0.25"></line><line x1="133.5" y1="0" x2="133.5" y2="177" fill="rgb(0, 0, 0)" stroke="rgb(189, 189, 189)" stroke-width="1px" opacity="0.25"></line><line x1="148.33333333333334" y1="0" x2="148.33333333333334" y2="177" fill="rgb(0, 0, 0)" stroke="rgb(189, 189, 189)" stroke-width="1px" opacity="0.25"></line><line x1="163.16666666666666" y1="0" x2="163.16666666666666" y2="177" fill="rgb(0, 0, 0)" stroke="rgb(189, 189, 189)" stroke-width="1px" opacity="0.25"></line><line x1="178" y1="0" x2="178" y2="177" fill="rgb(0, 0, 0)" stroke="rgb(189, 189, 189)" stroke-width="1px" opacity="0.25"></line></g><g><line x1="0" y1="177" x2="178" y2="177" fill="rgb(0, 0, 0)" stroke="rgb(189, 189, 189)" stroke-width="1px" opacity="0.25"></line><line x1="0" y1="162.25" x2="178" y2="162.25" fill="rgb(0, 0, 0)" stroke="rgb(189, 189, 189)" stroke-width="1px" opacity="0.25"></line><line x1="0" y1="147.5" x2="178" y2="147.5" fill="rgb(0, 0, 0)" stroke="rgb(189, 189, 189)" stroke-width="1px" opacity="0.25"></line><line x1="0" y1="132.75000000000003" x2="178" y2="132.75000000000003" fill="rgb(0, 0, 0)" stroke="rgb(189, 189, 189)" stroke-width="1px" opacity="0.25"></line><line x1="0" y1="118.00000000000001" x2="178" y2="118.00000000000001" fill="rgb(0, 0, 0)" stroke="rgb(189, 189, 189)" stroke-width="1px" opacity="0.25"></line><line x1="0" y1="103.25000000000003" x2="178" y2="103.25000000000003" fill="rgb(0, 0, 0)" stroke="rgb(189, 189, 189)" stroke-width="1px" opacity="0.25"></line><line x1="0" y1="88.50000000000001" x2="178" y2="88.50000000000001" fill="rgb(0, 0, 0)" stroke="rgb(189, 189, 189)" stroke-width="1px" opacity="0.25"></line><line x1="0" y1="73.75000000000001" x2="178" y2="73.75000000000001" fill="rgb(0, 0, 0)" stroke="rgb(189, 189, 189)" stroke-width="1px" opacity="0.25"></line><line x1="0" y1="59.00000000000003" x2="178" y2="59.00000000000003" fill="rgb(0, 0, 0)" stroke="rgb(189, 189, 189)" stroke-width="1px" opacity="0.25"></line><line x1="0" y1="44.25000000000002" x2="178" y2="44.25000000000002" fill="rgb(0, 0, 0)" stroke="rgb(189, 189, 189)" stroke-width="1px" opacity="0.25"></line><line x1="0" y1="29.500000000000032" x2="178" y2="29.500000000000032" fill="rgb(0, 0, 0)" stroke="rgb(189, 189, 189)" stroke-width="1px" opacity="0.25"></line><line x1="0" y1="14.750000000000007" x2="178" y2="14.750000000000007" fill="rgb(0, 0, 0)" stroke="rgb(189, 189, 189)" stroke-width="1px" opacity="0.25"></line><line x1="0" y1="0" x2="178" y2="0" fill="rgb(0, 0, 0)" stroke="rgb(189, 189, 189)" stroke-width="1px" opacity="0.25"></line></g></g></g><g><g><line x1="0" y1="309.75" x2="178" y2="309.75" fill="rgb(0, 0, 0)" stroke="rgb(153, 153, 153)" stroke-width="1.5px"></line></g></g><g><g><line x1="14.833333333333332" y1="0" x2="14.833333333333332" y2="177" fill="rgb(0, 0, 0)" stroke="rgb(153, 153, 153)" stroke-width="1.5px"></line></g></g><g><g><g><g><g><path stroke="rgb(255, 112, 67)" stroke-width="2px" d="M14.833333333333332,146.34881323575974L16.316666666666666,157.73638073727489L17.8,161.22237078875912L19.283333333333335,162.72224798349336L20.766666666666666,163.52319925634671L22.25,163.96195881505258L23.733333333333334,164.2117359453807L25.216666666666665,164.35705079394896L26.7,164.44266173265754L28.183333333333334,164.49347276977946L29.666666666666664,164.52376204574276L31.15,164.5418651291915L32.63333333333333,164.55270172613618L34.11666666666667,164.55919461905657L35.6,164.56308709689216L37.083333333333336,164.56542141194484L38.56666666666667,164.5668215794421L40.050000000000004,164.56766152824403L41.53333333333333,164.56816544292653L43.016666666666666,164.56846777208312L44.5,164.56864916250265L45.98333333333334,164.56875799420763L47.46666666666667,164.56882329231385L48.95,164.56886247084756L50.43333333333333,164.56888597784894L51.91666666666667,162.71375641024966L53.4,163.45582310092152L54.88333333333333,162.04592098279252L56.36666666666667,163.05512145679563L57.85,163.66064150321566L59.33333333333333,164.02395344539426L60.81666666666667,164.241940579859L62.3,164.37273284943458L63.78333333333333,164.45120820718276L65.26666666666667,162.6431528812803L66.75,163.41346023198705L68.23333333333333,163.8756446373261L69.71666666666667,164.15295527869895L71.2,164.3193416628637L72.68333333333334,164.41917349312524L74.16666666666667,164.4790725911968L75.64999999999999,162.659871541895L77.13333333333334,163.42349142063108L78.61666666666666,163.88166334773163L80.10000000000001,164.15656650394115L81.58333333333333,164.32150839764859L83.06666666666666,164.42047353386647L84.55,164.4798526155948L86.03333333333333,164.51548006463096L87.51666666666667,164.53685653405233" style="fill: none;" fill="none"></path></g><g><path stroke="rgb(187, 187, 187)" stroke-width="2px" d="M14.833333333333332,160.51293885707855L16.316666666666666,160.83115389943123L17.8,160.47016102927074L19.283333333333335,161.32250889741326L20.766666666666666,162.1079850918009L22.25,161.68378053327461L23.733333333333334,161.98457710368442L25.216666666666665,162.52510345449983L26.7,162.4260451011892L28.183333333333334,161.94541263914607L29.666666666666664,161.89936329943984L31.15,161.7457820511913L32.63333333333333,161.9297392872787L34.11666666666667,161.81216802359776L35.6,161.6577862019133L37.083333333333336,161.73296812496284L38.56666666666667,161.79004352189008L40.050000000000004,161.96805177907783L41.53333333333333,162.0029669984072L43.016666666666666,162.0119295049611L44.5,161.98137263552687L45.98333333333334,161.9091276202297L47.46666666666667,161.91369979855332L48.95,161.71877693128215L50.43333333333333,161.9612148441668L51.91666666666667,161.92698183405912L53.4,162.49344941388648L54.88333333333333,162.5697758094956L56.36666666666667,162.9510026605791L57.85,162.34115943729606L59.33333333333333,162.42449117466327L60.81666666666667,162.25286587758603L62.3,162.10197250530047L63.78333333333333,161.92757787493844L65.26666666666667,161.89482191856803L66.75,161.85120572793858L68.23333333333333,161.6812814114806L69.71666666666667,161.9387168439838L71.2,161.93744570926222L72.68333333333334,162.11637452218247L74.16666666666667,162.2716535269869L75.64999999999999,161.81375107383462L77.13333333333334,162.01819864049932L78.61666666666666,162.4164021083531L80.10000000000001,162.02039924073978L81.58333333333333,161.78279752019807L83.06666666666666,162.1673437266718L84.55,161.94284502918038L86.03333333333333,161.97585599574205L87.51666666666667,162.11546159358588" style="fill: none;" fill="none"></path></g><g><path stroke="rgb(0, 119, 187)" stroke-width="2px" d="M14.833333333333332,132.0737892985344L16.316666666666666,130.8058744519949L17.8,134.98910849070063L19.283333333333335,135.55276381881802L20.766666666666666,133.89719253757778L22.25,133.09666551563942L23.733333333333334,134.13668293863182L25.216666666666665,133.15987460320414L26.7,133.6773582428766L28.183333333333334,132.38570860646476L29.666666666666664,132.76949390867512L31.15,132.55837110470316L32.63333333333333,131.89030745202513L34.11666666666667,133.28341101663415L35.6,133.6788253241763L37.083333333333336,134.86293179236318L38.56666666666667,133.23983236136573L40.050000000000004,133.7877921142114L41.53333333333333,133.30502442879376L43.016666666666666,132.03482773873858L44.5,131.37417661849818L45.98333333333334,130.7749296928625L47.46666666666667,130.82111550715916L48.95,130.544527515582L50.43333333333333,130.71669066309772L51.91666666666667,131.25953104325893L53.4,131.82190708396521L54.88333333333333,132.29457667336376L56.36666666666667,131.969582407328L57.85,131.94363951625246L59.33333333333333,131.42091305440098L60.81666666666667,133.91357629697632L62.3,132.4000052277756L63.78333333333333,132.26951885234052L65.26666666666667,134.79466306742168L66.75,133.46963434984212L68.23333333333333,132.6746171280412L69.71666666666667,131.89330899214715L71.2,132.64171533450906L72.68333333333334,132.4483542240981L74.16666666666667,132.3661468622814L75.64999999999999,131.16724983382525L77.13333333333334,132.00321697931764L78.61666666666666,131.96382026517472L80.10000000000001,131.12872376817177L81.58333333333333,131.9801013397373L83.06666666666666,132.1866300777988L84.55,132.0062495157914L86.03333333333333,131.59372337375308L87.51666666666667,134.52442998718143L89,132.63128029721608L90.48333333333333,134.03120083462184L91.96666666666668,133.5863433292559L93.45,132.13604691094312L94.93333333333334,132.31400672475206L96.41666666666666,134.55086724686535L97.9,134.60817373232788L99.38333333333334,134.3720691230103L100.86666666666666,133.3175129429223L102.35,133.8005355081393L103.83333333333334,133.51556274184185L105.31666666666666,134.39271674685838L106.8,133.5327643760035L108.28333333333332,132.91535800743043L109.76666666666667,133.4916239383694L111.25,135.3588725210951L112.73333333333333,135.46489331017293L114.21666666666668,136.10329208904716L115.7,135.16770519098174L117.18333333333334,135.9587885217698L118.66666666666666,136.3996292160053L120.15,135.5145610216915L121.63333333333334,135.72735996506566L123.11666666666666,134.57022950328565L124.6,136.58082216547237L126.08333333333334,134.98087187746947L127.56666666666666,136.92863550269476L129.04999999999998,136.23769754459784L130.53333333333333,136.3302954333444L132.01666666666668,136.2168006120574L133.5,136.8587342750103L134.98333333333332,136.02670325345224L136.46666666666667,142.62776909772413L137.95000000000002,140.36720825734054L139.43333333333334,138.63894830645512L140.91666666666666,139.25872561038366L142.4,138.65007996976874L143.88333333333333,136.8310221697122L145.36666666666667,136.6524809041757L146.85,136.17343973154655L148.33333333333334,135.64933583161135L149.81666666666666,136.11252265585006L151.29999999999998,135.78183914072838L152.78333333333333,135.92153614072518L154.26666666666668,136.78301053827118L155.75,136.72510887137122L157.23333333333332,137.23133783907335L158.71666666666667,136.419318946425L160.20000000000002,136.3040240241431L161.68333333333334,137.45204532345196" style="fill: none;" fill="none"></path></g><g><path stroke="rgb(255, 112, 67)" stroke-width="2px" d="M14.833333333333332,147.46419674158096L16.316666666666666,140.60095677524805L17.8,137.807242960346L19.283333333333335,135.58051024771794L20.766666666666666,133.75230839796814L22.25,133.76496384404882L23.733333333333334,133.58182780072613L25.216666666666665,132.81972943405282L26.7,132.58778091741954L28.183333333333334,131.1471740660252L29.666666666666664,131.03712763990893L31.15,130.48090790047996L32.63333333333333,130.10611923850686L34.11666666666667,130.15630754671778L35.6,129.61319633772723L37.083333333333336,129.13227957774657L38.56666666666667,128.47970160386072L40.050000000000004,127.7301073327918L41.53333333333333,127.29233581457598L43.016666666666666,126.7312752072771L44.5,126.71693408409591L45.98333333333334,126.63671511874584L47.46666666666667,126.85117653975549L48.95,126.43676272942868L50.43333333333333,126.48651337411619L51.91666666666667,126.21796633560359L53.4,125.74649863720941L54.88333333333333,125.52329632213679L56.36666666666667,125.28195465595726L57.85,125.16102090183355L59.33333333333333,124.7244074880305L60.81666666666667,123.98500170421231L62.3,123.3503747286042L63.78333333333333,122.79652896138515L65.26666666666667,122.48809269501517L66.75,121.76590820660608L68.23333333333333,121.21323456726421L69.71666666666667,120.77421006017002L71.2,120.4033679980902L72.68333333333334,119.41098544577427L74.16666666666667,119.69286058913234L75.64999999999999,119.21147131044683L77.13333333333334,118.68988315518945L78.61666666666666,118.04271962784196L80.10000000000001,117.2127835186004L81.58333333333333,116.64320830292012L83.06666666666666,115.81805412638975L84.55,115.63926535050943L86.03333333333333,114.55920267819421L87.51666666666667,114.04842789601308L89,113.48533725518324L90.48333333333333,112.6819736944315L91.96666666666668,112.62368664662091L93.45,112.46338718843475L94.93333333333334,112.12848864622103L96.41666666666666,111.1636364854999L97.9,111.09797673211263L99.38333333333334,110.21112573615162L100.86666666666666,109.98934755606318L102.35,108.69848605324539L103.83333333333334,108.04929638105459L105.31666666666666,107.98802189944884L106.8,107.31267843794046L108.28333333333332,106.75230263561738L109.76666666666667,106.01025296980579L111.25,106.19166635116602L112.73333333333333,105.7812985577623L114.21666666666668,105.14715356817486L115.7,105.15459088796759L117.18333333333334,104.38917596527565L118.66666666666666,103.52409579389469L120.15,103.70331145544755L121.63333333333334,102.96337867510262L123.11666666666666,101.94648950536218L124.6,101.03198083185653L126.08333333333334,101.55155680145921L127.56666666666666,102.1199281547433L129.04999999999998,101.15992223822869L130.53333333333333,100.4526201462972L132.01666666666668,99.86709785319731L133.5,99.16963825140816L134.98333333333332,99.10925134130967L136.46666666666667,98.38669102256691L137.95000000000002,98.38285723248241L139.43333333333334,97.79568483185244L140.91666666666666,97.50306638331102L142.4,96.95150659233859L143.88333333333333,96.75186925977788L145.36666666666667,95.77268909126714L146.85,96.46830984777328L148.33333333333334,95.96063526169131L149.81666666666666,95.36956224260133L151.29999999999998,95.76688884149435L152.78333333333333,94.78184093505406L154.26666666666668,93.45077737254063L155.75,93.55330805827477L157.23333333333332,92.88672724276361L158.71666666666667,92.71356906240929L160.20000000000002,92.23964971152394L161.68333333333334,91.4360822787729" style="fill: none;" fill="none"></path></g><g><path stroke="rgb(0, 153, 136)" stroke-width="2px" d="M14.833333333333332,133.00358033180237L16.316666666666666,102.46812379360199L17.8,93.68117543385954L19.283333333333335,82.96781715049467L20.766666666666666,76.14685486295338L22.25,69.92775328447752L23.733333333333334,66.38734187994345L25.216666666666665,64.56833069130856L26.7,63.12096684155929L28.183333333333334,61.81972445433845L29.666666666666664,60.704694733054254L31.15,60.41099929755707L32.63333333333333,60.77687620912405L34.11666666666667,60.18400142561988L35.6,59.89622445695079L37.083333333333336,60.02802857238093L38.56666666666667,60.30999147727046L40.050000000000004,59.80284873642101L41.53333333333333,59.63384854941262L43.016666666666666,59.97201315436236L44.5,59.295800609197265L45.98333333333334,61.764044897380906L47.46666666666667,62.60256069094965L48.95,61.550353197570146L50.43333333333333,61.62906446680623L51.91666666666667,60.86483123249006L53.4,60.40629212623226L54.88333333333333,59.89448962113522L56.36666666666667,59.722652619355124L57.85,60.66768835531916L59.33333333333333,59.8484647054447L60.81666666666667,60.84461042339017L62.3,60.732267213787914L63.78333333333333,61.84824324045766L65.26666666666667,61.40207254354585L66.75,60.72863737522999L68.23333333333333,61.237469698832925L69.71666666666667,61.00179208778042L71.2,61.9085231888391L72.68333333333334,61.81015693342035L74.16666666666667,61.04110662395876L75.64999999999999,60.647302080531844L77.13333333333334,61.2224778232685L78.61666666666666,60.95898765903388L80.10000000000001,61.274244919938916L81.58333333333333,60.75336872069156L83.06666666666666,61.759469166603296L84.55,62.058831629286956L86.03333333333333,61.460799942682556L87.51666666666667,61.37246943132228L89,62.29998314748351L90.48333333333333,61.267383744535714L91.96666666666668,60.580198460945965L93.45,62.46703251250557L94.93333333333334,60.894262004183595L96.41666666666666,60.7282488633911L97.9,60.8653131419254L99.38333333333334,59.83179543577615L100.86666666666666,61.00366233684418L102.35,60.72626342116475L103.83333333333334,61.16841968142202L105.31666666666666,60.757499219436724L106.8,60.27426774588781L108.28333333333332,60.79579436354372L109.76666666666667,61.58206169350464L111.25,61.986196449658365L112.73333333333333,61.89057019428082L114.21666666666668,62.37417144224446L115.7,62.79957644132022L117.18333333333334,62.31097958080313" style="fill: none;" fill="none"></path></g><g><path stroke="rgb(238, 51, 119)" stroke-width="2px" d="M14.833333333333332,128.54551023244858L16.316666666666666,106.92071227729322L17.8,93.37369216826497L19.283333333333335,83.0430886493448L20.766666666666666,74.4734989780258L22.25,67.16237136654388L23.733333333333334,60.71624088186416L25.216666666666665,54.59266432400421L26.7,48.814643888384545L28.183333333333334,43.746145438317136L29.666666666666664,39.27520329819707L31.15,35.4726219364508L32.63333333333333,31.995236121751716L34.11666666666667,29.248744118702014L35.6,27.124557653840164L37.083333333333336,25.54025813636058L38.56666666666667,24.279572531384115L40.050000000000004,23.17115148405972L41.53333333333333,22.35696340061948L43.016666666666666,21.665555759383466L44.5,21.149269081740854L45.98333333333334,20.887254352367016L47.46666666666667,20.455512878089213L48.95,20.005492770237357L50.43333333333333,19.62805440619766L51.91666666666667,19.312071467426183L53.4,19.044897107012932L54.88333333333333,18.818950387799582L56.36666666666667,18.47449896337701L57.85,18.428962230164714L59.33333333333333,18.34196223027581L60.81666666666667,18.319604736021457L62.3,18.34199701741055L63.78333333333333,18.1047708860302L65.26666666666667,18.201161116305837L66.75,18.03220494211922L68.23333333333333,18.080036685889173L69.71666666666667,17.88791673471236L71.2,17.975556857123784L72.68333333333334,17.78345075029373L74.16666666666667,17.453339402281234L75.64999999999999,17.476091590178807L77.13333333333334,17.465871719508087L78.61666666666666,17.53732465983006L80.10000000000001,17.299699469068194L81.58333333333333,17.318258359229915L83.06666666666666,17.335357972501203L84.55,17.29787537367173L86.03333333333333,17.275385814374577L87.51666666666667,17.38721930829726L89,17.25140731244046L90.48333333333333,17.18782701914746L91.96666666666668,16.940795438439636L93.45,17.043237982363216L94.93333333333334,16.88984879146253L96.41666666666666,16.803786589445078L97.9,16.85360531433909L99.38333333333334,16.51347913995073L100.86666666666666,16.667485252944783L102.35,16.992643508868333L103.83333333333334,16.984826370213582L105.31666666666666,17.057720949729813L106.8,16.713533383894287L108.28333333333332,16.74573971169491L109.76666666666667,16.723285420759304L111.25,16.58448561669814L112.73333333333333,16.63250427628413L114.21666666666668,16.85229197254693L115.7,16.70366763538668L117.18333333333334,16.632399937311117" style="fill: none;" fill="none"></path></g><g><path stroke="rgb(51, 187, 238)" stroke-width="2px" d="M14.833333333333332,99.69985073804855L16.316666666666666,88.86980245262386L17.8,80.85373797465348L19.283333333333335,74.2484640838469L20.766666666666666,70.32943158125728L22.25,71.4099637414824L23.733333333333334,68.58141254522543L25.216666666666665,65.9385542308124L26.7,65.71358813877495L28.183333333333334,66.02228424588257L29.666666666666664,66.71531028450306L31.15,66.04520598938474L32.63333333333333,66.55816545867113L34.11666666666667,66.32411076338019L35.6,65.64257094357937L37.083333333333336,65.80880070215792L38.56666666666667,67.36261805377416L40.050000000000004,67.8213406838555L41.53333333333333,66.67640382810924L43.016666666666666,66.90241316026062L44.5,67.5789953062834L45.98333333333334,65.99006845449233L47.46666666666667,67.13301761294846L48.95,66.83826466218318L50.43333333333333,67.20238529142343L51.91666666666667,67.31942892070508L53.4,68.53922172457223L54.88333333333333,68.25676762443538L56.36666666666667,66.7010499907276L57.85,66.51145980176629L59.33333333333333,70.72550119874899L60.81666666666667,69.90664955964316L62.3,68.36720090304263L63.78333333333333,68.08593668843777L65.26666666666667,67.7819339122098L66.75,69.32389118388613L68.23333333333333,67.71324813629994L69.71666666666667,67.49070217685207L71.2,67.6614724072226L72.68333333333334,67.6286902947231L74.16666666666667,67.30472322217494L75.64999999999999,66.80604517383344L77.13333333333334,66.30396845280313L78.61666666666666,65.93510381179132L80.10000000000001,65.84902927753674L81.58333333333333,67.31887358124689L83.06666666666666,68.70794082703803L84.55,68.79754131450025L86.03333333333333,68.95273655303792L87.51666666666667,69.55301435976797L89,68.42550835721885L90.48333333333333,67.98567691870322L91.96666666666668,70.05473258154626L93.45,70.07897475991872L94.93333333333334,69.92445947905904L96.41666666666666,70.3727273117337L97.9,71.14884867494324L99.38333333333334,69.78873466387383L100.86666666666666,68.46550559362755L102.35,68.71970581627482L103.83333333333334,68.87222594986316L105.31666666666666,68.92992872577884L106.8,67.54448927987801L108.28333333333332,67.45706547229997L109.76666666666667,67.33699257927843L111.25,67.90735375736779L112.73333333333333,66.72808144005913L114.21666666666668,66.25719021268358L115.7,67.19184669558804L117.18333333333334,66.805937866596L118.66666666666666,66.81107176555847L120.15,66.61128221281561L121.63333333333334,66.7280876775276L123.11666666666666,67.50820151207994L124.6,68.58486542247623L126.08333333333334,66.52599282945928L127.56666666666666,65.69639499119364L129.04999999999998,64.92815482098726L130.53333333333333,64.36577577280323L132.01666666666668,64.0283483438928" style="fill: none;" fill="none"></path></g><g><path stroke="rgb(204, 51, 17)" stroke-width="2px" d="M14.833333333333332,123.26379990577698L16.316666666666666,99.41963995248081L17.8,84.73648630113018L19.283333333333335,73.69894782234644L20.766666666666666,64.23813399595994L22.25,55.83782723794116L23.733333333333334,47.82610369428156L25.216666666666665,39.86298211270796L26.7,33.25443064180929L28.183333333333334,27.825085986175626L29.666666666666664,24.283089968156432L31.15,22.09436468590296L32.63333333333333,19.995368241265066L34.11666666666667,19.27527023717162L35.6,18.789840845920764L37.083333333333336,17.913692155026563L38.56666666666667,17.68661553431743L40.050000000000004,17.18630405661643L41.53333333333333,17.124890139940987L43.016666666666666,17.028357011011867L44.5,17.155455672552023L45.98333333333334,16.736361926311165L47.46666666666667,16.84299385448155L48.95,16.06547058697565L50.43333333333333,16.333031610832073L51.91666666666667,16.43388967801915L53.4,16.33923452398923L54.88333333333333,16.4674467951726L56.36666666666667,16.162420965737162L57.85,16.11666839154746L59.33333333333333,16.226486726260728L60.81666666666667,16.059623111114686L62.3,15.756592848627976L63.78333333333333,16.25513158005084L65.26666666666667,16.088745625506192L66.75,15.97100715020476L68.23333333333333,15.966013337218747L69.71666666666667,16.14802927147028L71.2,15.755922879124409L72.68333333333334,16.021974996293405L74.16666666666667,15.548991772489781L75.64999999999999,15.23536637586584L77.13333333333334,15.047191137988033L78.61666666666666,14.940250274471964L80.10000000000001,14.870121477198774L81.58333333333333,16.690066837276593L83.06666666666666,16.552618874905754L84.55,16.291109188668923L86.03333333333333,15.937255563893943L87.51666666666667,15.939798106288357L89,16.138264411411992L90.48333333333333,15.941040464473579L91.96666666666668,15.810770504613187L93.45,15.744544120394812L94.93333333333334,15.830135519363711L96.41666666666666,15.988917717372345L97.9,15.69626272263224L99.38333333333334,15.586318996799537L100.86666666666666,15.693429390938595L102.35,15.80543799421289L103.83333333333334,15.669731063968534L105.31666666666666,15.474908234671702L106.8,15.584804846045985L108.28333333333332,15.447830720661667L109.76666666666667,15.652107479523762L111.25,15.768709255666248L112.73333333333333,15.60591573322458L114.21666666666668,15.794707887200385L115.7,15.46634518672699L117.18333333333334,15.263356253920072L118.66666666666666,15.123663023363404L120.15,15.600840994865239L121.63333333333334,15.720042460650504L123.11666666666666,15.463324018413031L124.6,15.494298141058835L126.08333333333334,15.596438789878203L127.56666666666666,15.269798865624644L129.04999999999998,15.067850631897707L130.53333333333333,14.946681691661535L132.01666666666668,14.873980327519808" style="fill: none;" fill="none"></path></g></g></g></g><g opacity="0.2"><g><g><g><path stroke="rgb(255, 112, 67)" stroke-width="2px" d="M14.833333333333332,146.34881323575974L16.316666666666666,164.56892123818398L17.8,164.56892123818398L19.283333333333335,164.4861035645008L20.766666666666666,164.56892123818398L22.25,164.56892123818398L23.733333333333334,164.56892123818398L25.216666666666665,164.56892123818398L26.7,164.56892123818398L28.183333333333334,164.56892123818398L29.666666666666664,164.56892123818398L31.15,164.56892123818398L32.63333333333333,164.56892123818398L34.11666666666667,164.56892123818398L35.6,164.56892123818398L37.083333333333336,164.56892123818398L38.56666666666667,164.56892123818398L40.050000000000004,164.56892123818398L41.53333333333333,164.56892123818398L43.016666666666666,164.56892123818398L44.5,164.56892123818398L45.98333333333334,164.56892123818398L47.46666666666667,164.56892123818398L48.95,164.56892123818398L50.43333333333333,164.56892123818398L51.91666666666667,159.93106997013092L53.4,164.56892123818398L54.88333333333333,159.93106997013092L56.36666666666667,164.56892123818398L57.85,164.56892123818398L59.33333333333333,164.56892123818398L60.81666666666667,164.56892123818398L62.3,164.56892123818398L63.78333333333333,164.56892123818398L65.26666666666667,159.93106997013092L66.75,164.56892123818398L68.23333333333333,164.56892123818398L69.71666666666667,164.56892123818398L71.2,164.56892123818398L72.68333333333334,164.56892123818398L74.16666666666667,164.56892123818398L75.64999999999999,159.93106997013092L77.13333333333334,164.56892123818398L78.61666666666666,164.56892123818398L80.10000000000001,164.56892123818398L81.58333333333333,164.56892123818398L83.06666666666666,164.56892123818398L84.55,164.56892123818398L86.03333333333333,164.56892123818398L87.51666666666667,164.56892123818398" style="fill: none;" fill="none"></path></g><g><path stroke="rgb(187, 187, 187)" stroke-width="2px" d="M14.833333333333332,160.51293885707855L16.316666666666666,161.02208292484283L17.8,160.12360787391663L19.283333333333335,162.32486999034882L20.766666666666666,163.13350281119347L22.25,161.09695291519165L23.733333333333334,162.41472101211548L25.216666666666665,163.3131960630417L26.7,162.2799532711506L28.183333333333334,161.23172944784164L29.666666666666664,161.83070695400238L31.15,161.51624596118927L32.63333333333333,162.20507448911667L34.11666666666667,161.63604146242142L35.6,161.4263949394226L37.083333333333336,161.84568798542023L38.56666666666667,161.8756324648857L40.050000000000004,162.23501896858215L41.53333333333333,162.05533450841904L43.016666666666666,162.02537244558334L44.5,161.9355390071869L45.98333333333334,161.8007624745369L47.46666666666667,161.92055797576904L48.95,161.4263949394226L50.43333333333333,162.32486999034882L51.91666666666667,161.8756324648857L53.4,163.34314933419228L54.88333333333333,162.68426528573036L56.36666666666667,163.5228425860405L57.85,161.4263949394226L59.33333333333333,162.54948875308037L60.81666666666667,161.99542796611786L62.3,161.8756324648857L63.78333333333333,161.6659859418869L65.26666666666667,161.84568798542023L66.75,161.78578144311905L68.23333333333333,161.4263949394226L69.71666666666667,162.32486999034882L71.2,161.9355390071869L72.68333333333334,162.3847677409649L74.16666666666667,162.50457203388214L75.64999999999999,161.12689739465714L77.13333333333334,162.32486999034882L78.61666666666666,163.01370730996132L80.10000000000001,161.4263949394226L81.58333333333333,161.4263949394226L83.06666666666666,162.74416303634644L84.55,161.60609698295593L86.03333333333333,162.02537244558334L87.51666666666667,162.32486999034882" style="fill: none;" fill="none"></path></g><g><path stroke="rgb(0, 119, 187)" stroke-width="2px" d="M14.833333333333332,132.0737892985344L16.316666666666666,130.0451255440712L17.8,139.00501316785812L19.283333333333335,136.215622484684L20.766666666666666,131.73567867279053L22.25,131.98924845457077L23.733333333333334,135.62392449378967L25.216666666666665,131.73567867279053L26.7,134.44054609537125L28.183333333333334,130.46775943040848L29.666666666666664,133.34169095754623L31.15,132.24283581972122L32.63333333333333,130.89039331674576L34.11666666666667,135.37033712863922L35.6,134.2714819908142L37.083333333333336,136.63825637102127L38.56666666666667,130.80587005615234L40.050000000000004,134.60959261655807L41.53333333333333,132.5809464454651L43.016666666666666,130.1296488046646L44.5,130.38323616981506L45.98333333333334,129.87607902288437L47.46666666666667,130.89039331674576L48.95,130.1296488046646L50.43333333333333,130.97493416070938L51.91666666666667,132.0737892985344L53.4,132.6654697060585L54.88333333333333,133.00358033180237L56.36666666666667,131.48209130764008L57.85,131.90472519397736L59.33333333333333,130.63682353496552L60.81666666666667,137.65257066488266L62.3,130.1296488046646L63.78333333333333,132.0737892985344L65.26666666666667,138.58237928152084L66.75,131.48209130764008L68.23333333333333,131.48209130764008L69.71666666666667,130.72134679555893L71.2,133.76432484388351L72.68333333333334,132.1583125591278L74.16666666666667,132.24283581972122L75.64999999999999,129.36890429258347L77.13333333333334,133.25716769695282L78.61666666666666,131.90472519397736L80.10000000000001,129.87607902288437L81.58333333333333,133.25716769695282L83.06666666666666,132.49642318487167L84.55,131.73567867279053L86.03333333333333,130.97493416070938L87.51666666666667,138.9204899072647L89,129.79155576229095L90.48333333333333,136.13108164072037L91.96666666666668,132.91905707120895L93.45,129.96060228347778L94.93333333333334,132.5809464454651L96.41666666666666,137.9061580300331L97.9,134.6941334605217L99.38333333333334,134.01791220903397L100.86666666666666,131.73567867279053L102.35,134.52506935596466L103.83333333333334,133.08810359239578L105.31666666666666,135.7084477543831L106.8,132.24283581972122L108.28333333333332,131.98924845457077L109.76666666666667,134.35602283477783L111.25,138.15974539518356L112.73333333333333,135.62392449378967L114.21666666666668,137.06089025735855L115.7,133.76432484388351L117.18333333333334,137.14541351795197L118.66666666666666,137.06089025735855L120.15,134.1869587302208L121.63333333333334,136.04655838012695L123.11666666666666,132.83453381061554L124.6,139.59671115875244L126.08333333333334,132.5809464454651L127.56666666666666,139.85028094053268L129.04999999999998,135.2012906074524L130.53333333333333,136.46919226646423L132.01666666666668,136.04655838012695L133.5,137.8216347694397L134.98333333333332,134.7786567211151L136.46666666666667,152.52936786413193L137.95000000000002,136.97636699676514L139.43333333333334,136.04655838012695L140.91666666666666,140.18839156627655L142.4,137.73711150884628L143.88333333333333,134.10243546962738L145.36666666666667,136.38466900587082L146.85,135.45487797260284L148.33333333333334,134.86317998170853L149.81666666666666,136.8073028922081L151.29999999999998,135.2858138680458L152.78333333333333,136.13108164072037L154.26666666666668,138.07522213459015L155.75,136.63825637102127L157.23333333333332,137.99068129062653L158.71666666666667,135.2012906074524L160.20000000000002,136.13108164072037L161.68333333333334,139.17407727241516" style="fill: none;" fill="none"></path></g><g><path stroke="rgb(255, 112, 67)" stroke-width="2px" d="M14.833333333333332,147.46419674158096L16.316666666666666,136.4830127954483L17.8,135.12527769804L19.283333333333335,132.96187257766724L20.766666666666666,131.36540806293488L22.25,133.78247088193893L23.733333333333334,133.31994032859802L25.216666666666665,131.70858269929886L26.7,132.24570190906525L28.183333333333334,129.0080407857895L29.666666666666664,130.87305611371994L31.15,129.6496052145958L32.63333333333333,129.54515999555588L34.11666666666667,130.23149168491364L35.6,128.79916793107986L37.083333333333336,128.41124361753464L38.56666666666667,127.50111079216003L40.050000000000004,126.60590624809267L41.53333333333333,126.63574522733688L43.016666666666666,125.88973557949066L44.5,126.69542318582536L45.98333333333334,126.51638931035997L47.46666666666667,127.17286443710329L48.95,125.81514692306519L50.43333333333333,126.5611389875412L51.91666666666667,125.81514692306519L53.4,125.03929829597473L54.88333333333333,125.18849319219589L56.36666666666667,124.9199423789978L57.85,124.97962033748628L59.33333333333333,124.06948751211166L60.81666666666667,122.87589317560197L62.3,122.39843434095383L63.78333333333333,121.96576035022736L65.26666666666667,122.02543830871582L66.75,120.68263149261475L68.23333333333333,120.38422411680222L69.71666666666667,120.11567330360413L71.2,119.84710490703586L72.68333333333334,117.92241162061694L74.16666666666667,120.11567330360413L75.64999999999999,118.48938739299774L77.13333333333334,117.9075009226799L78.61666666666666,117.07197433710101L80.10000000000001,115.96787935495377L81.58333333333333,115.78884547948837L83.06666666666666,114.58032286167148L84.55,115.37108218669893L86.03333333333333,112.93910866975787L87.51666666666667,113.28226572275162L89,112.64070129394534L90.48333333333333,111.47692835330966L91.96666666666668,112.53625607490542L93.45,112.22293800115585L94.93333333333334,111.62614083290102L96.41666666666666,109.7163582444191L97.9,110.99948710203174L99.38333333333334,108.88084924221039L100.86666666666666,109.65668028593066L102.35,106.76219379901886L103.83333333333334,107.07551187276843L105.31666666666666,107.8961101770401L106.8,106.29966324567798L108.28333333333332,105.91173893213275L109.76666666666667,104.89717847108842L111.25,106.46378642320633L112.73333333333333,105.16574686765674L114.21666666666668,104.19593608379367L115.7,105.16574686765674L117.18333333333334,103.24105358123782L118.66666666666666,102.22647553682327L120.15,103.9721349477768L121.63333333333334,101.85347950458527L123.11666666666666,100.4211557507515L124.6,99.66021782159808L126.08333333333334,102.33092075586319L127.56666666666666,102.97248518466951L129.04999999999998,99.71991336345674L130.53333333333333,99.39166700839999L132.01666666666668,98.98881441354754L133.5,98.1234488487244L134.98333333333332,99.01867097616199L136.46666666666667,97.30285054445268L137.95000000000002,98.37710654735567L139.43333333333334,96.91492623090745L140.91666666666666,97.06413871049882L142.4,96.12416690588L143.88333333333333,96.45241326093675L145.36666666666667,94.303918838501L146.85,97.51174098253252L148.33333333333334,95.19912338256837L149.81666666666666,94.4829527139664L151.29999999999998,96.36287873983385L152.78333333333333,93.30426907539369L154.26666666666668,91.45418202877046L155.75,93.70710408687594L157.23333333333332,91.88685601949695L158.71666666666667,92.45383179187776L160.20000000000002,91.52877068519594L161.68333333333334,90.23073112964632" style="fill: none;" fill="none"></path></g><g><path stroke="rgb(0, 153, 136)" stroke-width="2px" d="M14.833333333333332,133.00358033180237L16.316666666666666,84.14684987068178L17.8,85.24570500850679L19.283333333333335,70.36890780925752L20.766666666666666,67.24140650033952L22.25,61.324496924877195L23.733333333333334,61.324496924877195L25.216666666666665,61.91619491577151L26.7,60.98638629913332L28.183333333333334,59.88753116130832L29.666666666666664,59.04226338863376L31.15,59.972054421901724L32.63333333333333,61.324496924877195L34.11666666666667,59.2958507537842L35.6,59.46489727497104L37.083333333333336,60.22564178705217L38.56666666666667,60.73281651735308L40.050000000000004,59.04226338863376L41.53333333333333,59.38037401437761L43.016666666666666,60.479229152202635L44.5,58.2815188765526L45.98333333333334,65.46633011102679L47.46666666666667,63.86031782627108L48.95,59.972054421901724L50.43333333333333,61.747130811214475L51.91666666666667,59.71848464012148L53.4,59.71848464012148L54.88333333333333,59.126786649227164L56.36666666666667,59.46489727497104L57.85,62.08524143695833L59.33333333333333,58.619629502296476L60.81666666666667,62.33882880210879L62.3,60.56375241279604L63.78333333333333,63.522207200527205L65.26666666666667,60.73281651735308L66.75,59.71848464012148L68.23333333333333,62.00071817636492L69.71666666666667,60.64827567338945L71.2,63.26861983537676L72.68333333333334,61.66260755062105L74.16666666666667,59.88753116130832L75.64999999999999,60.056595265865354L77.13333333333334,62.08524143695833L78.61666666666666,60.56375241279604L80.10000000000001,61.747130811214475L81.58333333333333,59.972054421901724L83.06666666666666,63.26861983537676L84.55,62.50787532329561L86.03333333333333,60.56375241279604L87.51666666666667,61.23997366428377L89,63.69125372171404L90.48333333333333,59.71848464012148L91.96666666666668,59.549420535564444L93.45,65.29728358983995L94.93333333333334,58.53510624170305L96.41666666666666,60.479229152202635L97.9,61.07090955972673L99.38333333333334,58.2815188765526L100.86666666666666,62.76146268844607L102.35,60.3101650476456L103.83333333333334,61.83165407180788L105.31666666666666,60.14111852645876L106.8,59.549420535564444L108.28333333333332,61.57808429002764L109.76666666666667,62.76146268844607L111.25,62.592398583889036L112.73333333333333,61.747130811214475L114.21666666666668,63.099573314189925L115.7,63.4376839399338L117.18333333333334,61.57808429002764" style="fill: none;" fill="none"></path></g><g><path stroke="rgb(238, 51, 119)" stroke-width="2px" d="M14.833333333333332,128.54551023244858L16.316666666666666,93.9458335042L17.8,80.3685528635979L19.283333333333335,70.89429891109468L20.766666666666666,63.28504270315172L22.25,57.04844987392427L23.733333333333334,51.49817115068438L25.216666666666665,45.66443091630938L26.7,40.29318606853488L28.183333333333334,36.22001594305042L29.666666666666664,32.60934120416644L31.15,29.789443373680136L32.63333333333333,26.79051166772844L34.11666666666667,25.134386777877815L35.6,23.940774857997894L37.083333333333336,23.16492623090744L38.56666666666667,22.389077603816986L40.050000000000004,21.508801341056838L41.53333333333333,21.13580530881883L43.016666666666666,20.628507494926467L44.5,20.374867379665396L45.98333333333334,20.494240880012534L47.46666666666667,19.807909190654776L48.95,19.330467939376852L50.43333333333333,19.06189954280854L51.91666666666667,18.83809840679171L53.4,18.644136250019095L54.88333333333333,18.480030655860922L56.36666666666667,17.95782214403154L57.85,18.360657155513785L59.33333333333333,18.21146225929261L60.81666666666667,18.28606849908831L62.3,18.375585436821005L63.78333333333333,17.748931705951705L65.26666666666667,18.345746457576766L66.75,17.778770685195944L68.23333333333333,18.151784300804152L69.71666666666667,17.59973680973055L71.2,18.107017040252693L72.68333333333334,17.495291590690634L74.16666666666667,16.958172380924232L75.64999999999999,17.510219871997855L77.13333333333334,17.450541913509376L78.61666666666666,17.64450407028199L80.10000000000001,16.943261682987234L81.58333333333333,17.34609669446946L83.06666666666666,17.361007392406478L84.55,17.241651475429542L86.03333333333333,17.241651475429542L87.51666666666667,17.55496954917909L89,17.04768931865693L90.48333333333333,17.09245657920839L91.96666666666668,16.570248067379005L93.45,17.196901798248305L94.93333333333334,16.6597650051117L96.41666666666666,16.674693286418922L97.9,16.928333401680014L99.38333333333334,16.003289878368385L100.86666666666666,16.898494422435775L102.35,17.480380892753615L103.83333333333334,16.973100662231452L105.31666666666666,17.167062819004066L106.8,16.197252035141L108.28333333333332,16.794049203395858L109.76666666666667,16.68960398435594L111.25,16.37628591060639L112.73333333333333,16.70453226566316L114.21666666666668,17.181973516941085L115.7,16.48073112964631L117.18333333333334,16.525498390197768" style="fill: none;" fill="none"></path></g><g><path stroke="rgb(51, 187, 238)" stroke-width="2px" d="M14.833333333333332,99.69985073804855L16.316666666666666,82.37177348136903L17.8,73.15831607580186L19.283333333333335,66.48066198825839L20.766666666666666,65.21274274587633L22.25,72.90472871065143L23.733333333333334,64.5365390777588L25.216666666666665,62.08524143695833L26.7,65.38180685043336L28.183333333333334,66.48066198825839L29.666666666666664,67.74856364727023L31.15,65.04369622468951L32.63333333333333,67.32592976093295L34.11666666666667,65.97348725795747L35.6,64.62106233835223L37.083333333333336,66.05802810192111L38.56666666666667,69.69268655776979L40.050000000000004,68.50930815935136L41.53333333333333,64.95917296409608L43.016666666666666,67.24140650033952L44.5,68.59383141994479L45.98333333333334,63.606730461120634L47.46666666666667,68.84741878509523L48.95,66.39613872766496L50.43333333333333,67.74856364727023L51.91666666666667,67.49499386548999L53.4,70.36890780925752L54.88333333333333,67.83308690786363L56.36666666666667,64.36747497320177L57.85,66.22707462310792L59.33333333333333,77.04656189680102L60.81666666666667,68.6783722639084L62.3,66.05802810192111L63.78333333333333,67.6640403866768L65.26666666666667,67.32592976093295L66.75,71.63682705163959L68.23333333333333,65.29728358983995L69.71666666666667,67.15688323974611L71.2,67.91762775182727L72.68333333333334,67.57951712608339L74.16666666666667,66.81877261400224L75.64999999999999,66.05802810192111L77.13333333333334,65.55085337162019L78.61666666666666,65.38180685043336L80.10000000000001,65.71991747617723L81.58333333333333,69.52364003658296L83.06666666666666,70.7915416955948L84.55,68.93194204568864L86.03333333333333,69.18552941083911L87.51666666666667,70.45343106985095L89,66.73424935340883L90.48333333333333,67.32592976093295L91.96666666666668,73.15831607580186L93.45,70.11533802747728L94.93333333333334,69.69268655776979L96.41666666666666,71.04512906074527L97.9,72.31303071975711L99.38333333333334,67.74856364727023L100.86666666666666,66.48066198825839L102.35,69.10100615024568L103.83333333333334,69.10100615024568L105.31666666666666,69.01648288965227L106.8,65.46633011102679L108.28333333333332,67.32592976093295L109.76666666666667,67.15688323974611L111.25,68.76289552450183L112.73333333333333,64.95917296409608L114.21666666666668,65.55085337162019L115.7,68.59383141994479L117.18333333333334,66.22707462310792L118.66666666666666,66.81877261400224L120.15,66.31159788370135L121.63333333333334,66.90329587459567L123.11666666666666,68.6783722639084L124.6,70.19986128807071L126.08333333333334,63.4376839399338L127.56666666666666,64.4519982337952L129.04999999999998,63.77579456567767L130.53333333333333,63.522207200527205L132.01666666666668,63.522207200527205" style="fill: none;" fill="none"></path></g><g><path stroke="rgb(204, 51, 17)" stroke-width="2px" d="M14.833333333333332,123.26379990577698L16.316666666666666,85.1131439805031L17.8,70.6406587958336L19.283333333333335,60.718802571296706L20.766666666666666,51.886095464229605L22.25,44.21717888116839L23.733333333333334,36.369210839271574L25.216666666666665,28.252674400806427L26.7,23.50810086727143L28.183333333333334,19.763141930103316L29.666666666666664,19.002221584320083L31.15,18.82318770885469L32.63333333333333,16.853727161884315L34.11666666666667,18.19653397798539L35.6,18.062267363071456L37.083333333333336,16.600087046623244L38.56666666666667,17.34609669446946L40.050000000000004,16.43596386909487L41.53333333333333,17.03277862071993L43.016666666666666,16.883566141128554L44.5,17.34609669446946L45.98333333333334,16.107735097408302L47.46666666666667,17.00293964147569L48.95,14.89919489622118L50.43333333333333,16.7343712449074L51.91666666666667,16.585176348686225L53.4,16.197252035141L54.88333333333333,16.6597650051117L56.36666666666667,15.704882502555854L57.85,16.048039555549643L59.33333333333333,16.391214191913612L60.81666666666667,15.809327721595771L62.3,15.302047491073628L63.78333333333333,17.00293964147569L65.26666666666667,15.839166700840009L66.75,15.79439944028855L68.23333333333333,15.958522617816945L69.71666666666667,16.42105317115785L71.2,15.167763292789472L72.68333333333334,16.42105317115785L74.16666666666667,14.839516937732704L75.64999999999999,14.764928281307228L77.13333333333334,14.764928281307228L78.61666666666666,14.779838979244245L80.10000000000001,14.764928281307228L81.58333333333333,19.41998487710955L83.06666666666666,16.346446931362173L84.55,15.898844659328468L86.03333333333333,15.406475126743324L87.51666666666667,15.943611919879926L89,16.43596386909487L90.48333333333333,15.645204544067395L91.96666666666668,15.615365564823158L93.45,15.645204544067395L94.93333333333334,15.958522617816945L96.41666666666666,16.227091014385238L97.9,15.257280230522168L99.38333333333334,15.421403408050544L100.86666666666666,15.85409498214723L102.35,15.973450899124165L103.83333333333334,15.466170668602002L105.31666666666666,15.18267399072649L106.8,15.749649763107312L108.28333333333332,15.242369532585151L109.76666666666667,15.958522617816945L111.25,15.943611919879926L112.73333333333333,15.361725449562085L114.21666666666668,16.077896118164084L115.7,14.973801136016858L117.18333333333334,14.958872854709638L118.66666666666666,14.9141231775284L120.15,16.316607952117934L121.63333333333334,15.898844659328468L123.11666666666666,15.078246355056775L124.6,15.540759325027478L126.08333333333334,15.749649763107312L127.56666666666666,14.779838979244245L129.04999999999998,14.764928281307228L130.53333333333333,14.764928281307228L132.01666666666668,14.764928281307228" style="fill: none;" fill="none"></path></g></g></g></g></g></g><g transform="translate(50, 177)" clip-path="url(#clip_1)"><clipPath id="clip_1"><rect width="178" height="23"></rect></clipPath><g><g><line x1="0" y1="0" x2="0" y2="5" style="visibility: inherit;" fill="rgb(0, 0, 0)" stroke="rgb(204, 204, 204)" stroke-width="1px"></line><line x1="14.833333333333332" y1="0" x2="14.833333333333332" y2="5" style="visibility: inherit;" fill="rgb(0, 0, 0)" stroke="rgb(204, 204, 204)" stroke-width="1px"></line><line x1="29.666666666666664" y1="0" x2="29.666666666666664" y2="5" style="visibility: inherit;" fill="rgb(0, 0, 0)" stroke="rgb(204, 204, 204)" stroke-width="1px"></line><line x1="44.5" y1="0" x2="44.5" y2="5" style="visibility: inherit;" fill="rgb(0, 0, 0)" stroke="rgb(204, 204, 204)" stroke-width="1px"></line><line x1="59.33333333333333" y1="0" x2="59.33333333333333" y2="5" style="visibility: inherit;" fill="rgb(0, 0, 0)" stroke="rgb(204, 204, 204)" stroke-width="1px"></line><line x1="74.16666666666667" y1="0" x2="74.16666666666667" y2="5" style="visibility: inherit;" fill="rgb(0, 0, 0)" stroke="rgb(204, 204, 204)" stroke-width="1px"></line><line x1="89" y1="0" x2="89" y2="5" style="visibility: inherit;" fill="rgb(0, 0, 0)" stroke="rgb(204, 204, 204)" stroke-width="1px"></line><line x1="103.83333333333334" y1="0" x2="103.83333333333334" y2="5" style="visibility: inherit;" fill="rgb(0, 0, 0)" stroke="rgb(204, 204, 204)" stroke-width="1px"></line><line x1="118.66666666666666" y1="0" x2="118.66666666666666" y2="5" style="visibility: inherit;" fill="rgb(0, 0, 0)" stroke="rgb(204, 204, 204)" stroke-width="1px"></line><line x1="133.5" y1="0" x2="133.5" y2="5" style="visibility: inherit;" fill="rgb(0, 0, 0)" stroke="rgb(204, 204, 204)" stroke-width="1px"></line><line x1="148.33333333333334" y1="0" x2="148.33333333333334" y2="5" style="visibility: inherit;" fill="rgb(0, 0, 0)" stroke="rgb(204, 204, 204)" stroke-width="1px"></line><line x1="163.16666666666666" y1="0" x2="163.16666666666666" y2="5" style="visibility: inherit;" fill="rgb(0, 0, 0)" stroke="rgb(204, 204, 204)" stroke-width="1px"></line><line x1="178" y1="0" x2="178" y2="5" style="visibility: inherit;" fill="rgb(0, 0, 0)" stroke="rgb(204, 204, 204)" stroke-width="1px"></line></g><g transform="translate(0, 8)"><text x="0" y="0" dx="0em" dy="0.95em" style="text-anchor: middle; visibility: hidden; font-family: Roboto, sans-serif; font-size: 12px; font-weight: 200;" fill="rgb(255, 255, 255)" stroke="none" stroke-width="1px">-10</text><text x="14.833333333333332" y="0" dx="0em" dy="0.95em" style="text-anchor: middle; visibility: inherit; font-family: Roboto, sans-serif; font-size: 12px; font-weight: 200;" fill="rgb(255, 255, 255)" stroke="none" stroke-width="1px">0</text><text x="29.666666666666664" y="0" dx="0em" dy="0.95em" style="text-anchor: middle; visibility: hidden; font-family: Roboto, sans-serif; font-size: 12px; font-weight: 200;" fill="rgb(255, 255, 255)" stroke="none" stroke-width="1px">10</text><text x="44.5" y="0" dx="0em" dy="0.95em" style="text-anchor: middle; visibility: inherit; font-family: Roboto, sans-serif; font-size: 12px; font-weight: 200;" fill="rgb(255, 255, 255)" stroke="none" stroke-width="1px">20</text><text x="59.33333333333333" y="0" dx="0em" dy="0.95em" style="text-anchor: middle; visibility: hidden; font-family: Roboto, sans-serif; font-size: 12px; font-weight: 200;" fill="rgb(255, 255, 255)" stroke="none" stroke-width="1px">30</text><text x="74.16666666666667" y="0" dx="0em" dy="0.95em" style="text-anchor: middle; visibility: inherit; font-family: Roboto, sans-serif; font-size: 12px; font-weight: 200;" fill="rgb(255, 255, 255)" stroke="none" stroke-width="1px">40</text><text x="89" y="0" dx="0em" dy="0.95em" style="text-anchor: middle; visibility: hidden; font-family: Roboto, sans-serif; font-size: 12px; font-weight: 200;" fill="rgb(255, 255, 255)" stroke="none" stroke-width="1px">50</text><text x="103.83333333333334" y="0" dx="0em" dy="0.95em" style="text-anchor: middle; visibility: inherit; font-family: Roboto, sans-serif; font-size: 12px; font-weight: 200;" fill="rgb(255, 255, 255)" stroke="none" stroke-width="1px">60</text><text x="118.66666666666666" y="0" dx="0em" dy="0.95em" style="text-anchor: middle; visibility: hidden; font-family: Roboto, sans-serif; font-size: 12px; font-weight: 200;" fill="rgb(255, 255, 255)" stroke="none" stroke-width="1px">70</text><text x="133.5" y="0" dx="0em" dy="0.95em" style="text-anchor: middle; visibility: inherit; font-family: Roboto, sans-serif; font-size: 12px; font-weight: 200;" fill="rgb(255, 255, 255)" stroke="none" stroke-width="1px">80</text><text x="148.33333333333334" y="0" dx="0em" dy="0.95em" style="text-anchor: middle; visibility: hidden; font-family: Roboto, sans-serif; font-size: 12px; font-weight: 200;" fill="rgb(255, 255, 255)" stroke="none" stroke-width="1px">90</text><text x="163.16666666666666" y="0" dx="0em" dy="0.95em" style="text-anchor: middle; visibility: inherit; font-family: Roboto, sans-serif; font-size: 12px; font-weight: 200;" fill="rgb(255, 255, 255)" stroke="none" stroke-width="1px">100</text><text x="178" y="0" dx="0em" dy="0.95em" style="text-anchor: middle; visibility: hidden; font-family: Roboto, sans-serif; font-size: 12px; font-weight: 200;" fill="rgb(255, 255, 255)" stroke="none" stroke-width="1px">110</text></g><line x1="0" y1="0" x2="178" y2="0" fill="rgb(0, 0, 0)" stroke="rgb(204, 204, 204)" stroke-width="1px"></line></g></g></g></g></svg>